<mxfile host="app.diagrams.net" modified="2024-01-01T00:00:00.000Z" agent="5.0" etag="xxx" version="22.1.16" type="device">
  <diagram name="AI Limitations and Breakthroughs" id="ai-limitations-breakthroughs">
    <mxGraphModel dx="2074" dy="1181" grid="1" gridSize="10" guides="1" tooltips="1" connect="1" arrows="1" fold="1" page="1" pageScale="1" pageWidth="1600" pageHeight="1200" math="0" shadow="0">
      <root>
        <mxCell id="0" />
        <mxCell id="1" parent="0" />
        
        <!-- 标题 -->
        <mxCell id="title" value="🧠 AI模型的局限性与突破训练数据限制的前沿探索" style="rounded=1;whiteSpace=wrap;html=1;fillColor=#1e88e5;strokeColor=#1565c0;fontColor=white;fontSize=18;fontStyle=1;align=center;" vertex="1" parent="1">
          <mxGeometry x="600" y="20" width="400" height="60" as="geometry" />
        </mxCell>
        
        <!-- 核心问题 -->
        <mxCell id="core-problem" value="⚠️ 核心问题：统计规律魔咒\n\n• AI智能本质上是对训练数据中统计规律的学习和泛化\n• 面对完全未见过的数据分布或概念会表现出明显局限性\n• 如何突破这一根本性限制？" style="rounded=1;whiteSpace=wrap;html=1;fillColor=#ffebee;strokeColor=#f44336;align=left;verticalAlign=top;spacingLeft=10;spacingTop=10;fontSize=12;" vertex="1" parent="1">
          <mxGeometry x="50" y="120" width="300" height="120" as="geometry" />
        </mxCell>
        
        <!-- 强化学习 -->
        <mxCell id="reinforcement-learning" value="🎮 强化学习：从环境交互中学习\n\n核心思想：\n• 不仅从静态数据学习\n• 通过与环境的动态交互获得新知识\n\n技术方法：\n• RLHF (人类反馈强化学习)\n• 在线学习：部署后继续学习\n• 探索-利用平衡\n\n突破点：\n✅ 处理训练时未见过的情况\n✅ 通过试错学习新策略\n✅ 适应动态变化的环境" style="rounded=1;whiteSpace=wrap;html=1;fillColor=#e8f5e8;strokeColor=#4caf50;align=left;verticalAlign=top;spacingLeft=10;spacingTop=10;fontSize=11;" vertex="1" parent="1">
          <mxGeometry x="400" y="120" width="280" height="200" as="geometry" />
        </mxCell>
        
        <!-- 元学习 -->
        <mxCell id="meta-learning" value="🎯 元学习：学会如何学习\n\n定义：训练模型快速适应新任务的能力\n\n典型方法：\n• MAML：学习好的初始化参数\n• Prototypical Networks：学习任务原型\n• Memory-Augmented Networks：外部记忆\n\n突破意义：\n✅ 用极少样本学习新任务\n✅ 跨领域知识迁移\n✅ 减少对大量标注数据的依赖" style="rounded=1;whiteSpace=wrap;html=1;fillColor=#e3f2fd;strokeColor=#2196f3;align=left;verticalAlign=top;spacingLeft=10;spacingTop=10;fontSize=11;" vertex="1" parent="1">
          <mxGeometry x="720" y="120" width="280" height="200" as="geometry" />
        </mxCell>
        
        <!-- 少样本学习 -->
        <mxCell id="few-shot-learning" value="🔍 少样本学习与零样本学习\n\nFew-Shot Learning：\n• 用极少样本（1-10个）学习新概念\n• Siamese Networks：学习相似性度量\n• Matching Networks：基于注意力匹配\n\nZero-Shot Learning：\n• 完全不需要目标类别的训练样本\n• 语义嵌入：利用类别语义描述\n• 属性学习：学习可组合的属性特征\n\n示例：识别从未见过的动物\n训练：见过猫、狗、鸟\n测试：识别斑马（通过&quot;有条纹的马&quot;）" style="rounded=1;whiteSpace=wrap;html=1;fillColor=#fff3e0;strokeColor=#ff9800;align=left;verticalAlign=top;spacingLeft=10;spacingTop=10;fontSize=11;" vertex="1" parent="1">
          <mxGeometry x="1040" y="120" width="300" height="200" as="geometry" />
        </mxCell>
        
        <!-- 神经符号AI -->
        <mxCell id="neuro-symbolic" value="🧩 神经符号AI：结合符号推理与神经网络\n\n核心理念：\n• 纯神经网络缺乏可解释的推理能力\n• 将符号逻辑与神经网络结合\n\n技术实现：\n• Neural Module Networks (NMN)\n• Graph Neural Networks + 知识图谱\n\n突破潜力：\n✅ 组合性：处理未见过的概念组合\n✅ 可解释性：提供推理过程解释\n✅ 知识迁移：符号知识可跨领域迁移" style="rounded=1;whiteSpace=wrap;html=1;fillColor=#f3e5f5;strokeColor=#9c27b0;align=left;verticalAlign=top;spacingLeft=10;spacingTop=10;fontSize=11;" vertex="1" parent="1">
          <mxGeometry x="50" y="360" width="320" height="180" as="geometry" />
        </mxCell>
        
        <!-- 持续学习 -->
        <mxCell id="continual-learning" value="🔄 持续学习与终身学习\n\n核心挑战：灾难性遗忘\n• 学习新任务时忘记旧任务\n\n解决方案：\n• Elastic Weight Consolidation (EWC)\n• Progressive Networks：新任务添加新分支\n• Memory Replay：重放旧任务关键样本\n\n突破点：\n✅ 模型可以不断学习新知识\n✅ 不需要重新训练整个模型\n✅ 知识积累效应" style="rounded=1;whiteSpace=wrap;html=1;fillColor=#e8f5e8;strokeColor=#4caf50;align=left;verticalAlign=top;spacingLeft=10;spacingTop=10;fontSize=11;" vertex="1" parent="1">
          <mxGeometry x="400" y="360" width="280" height="180" as="geometry" />
        </mxCell>
        
        <!-- 大模型涌现能力 -->
        <mxCell id="emergence" value="✨ 大模型的涌现能力与规模化效应\n\n涌现现象：\n• 模型规模达到临界点时出现未明确优化的能力\n\n典型例子：\n• Chain-of-Thought推理\n• In-Context Learning\n• 代码生成能力\n\n规模化的哲学意义：\n小模型：记忆 + 简单模式匹配\n中等模型：复杂模式识别 + 有限泛化\n大模型：涌现推理 + 创造性组合\n超大模型：？？？（未知的涌现能力）" style="rounded=1;whiteSpace=wrap;html=1;fillColor=#fff8e1;strokeColor=#ffc107;align=left;verticalAlign=top;spacingLeft=10;spacingTop=10;fontSize=11;" vertex="1" parent="1">
          <mxGeometry x="720" y="360" width="280" height="180" as="geometry" />
        </mxCell>
        
        <!-- 量子计算 -->
        <mxCell id="quantum-computing" value="⚛️ 量子计算：新的计算范式\n\n量子计算的独特优势：\n• 量子叠加：α|0⟩ + β|1⟩\n• 量子纠缠：非局域关联\n\n在AI中的应用潜力：\n• Quantum Support Vector Machine\n• Quantum Neural Networks\n• Variational Quantum Eigensolver\n\n突破潜力：\n• 量子并行性：同时探索指数级可能性\n• 量子干涉：利用波函数干涉进行模式识别\n• 量子纠缠：捕捉非经典关联关系\n\n现实挑战：\n⚠️ 量子退相干\n⚠️ 量子纠错\n⚠️ 经典-量子接口" style="rounded=1;whiteSpace=wrap;html=1;fillColor=#e1f5fe;strokeColor=#0277bd;align=left;verticalAlign=top;spacingLeft=10;spacingTop=10;fontSize=11;" vertex="1" parent="1">
          <mxGeometry x="1040" y="360" width="300" height="240" as="geometry" />
        </mxCell>
        
        <!-- 其他前沿方向 -->
        <mxCell id="other-frontiers" value="🚀 其他前沿研究方向\n\n因果推理与反事实学习：\n• 从相关性学习转向因果关系理解\n• 反事实推理：&quot;如果...会怎样？&quot;\n\n程序合成与神经程序搜索：\n• 让AI学会编写程序来解决问题\n• 组合性、可解释性、泛化性\n\n多模态学习与世界模型：\n• 通过多种感官模态学习对世界的统一理解\n• 视觉-语言模型、具身AI、世界模型\n\n自监督学习与表示学习：\n• 从数据本身的结构中学习\n• 对比学习、掩码语言模型、自回归生成" style="rounded=1;whiteSpace=wrap;html=1;fillColor=#fce4ec;strokeColor=#e91e63;align=left;verticalAlign=top;spacingLeft=10;spacingTop=10;fontSize=11;" vertex="1" parent="1">
          <mxGeometry x="50" y="580" width="320" height="200" as="geometry" />
        </mxCell>
        
        <!-- 突破程度分析 -->
        <mxCell id="breakthrough-analysis" value="📊 当前突破的程度\n\n已经实现的突破：\n✅ 少样本学习：GPT-3的in-context learning\n✅ 跨模态泛化：CLIP的零样本图像分类\n✅ 代码生成：从自然语言到代码的转换\n✅ 创造性组合：DALL-E的图像生成\n\n部分突破：\n🔄 持续学习：仍有灾难性遗忘问题\n🔄 因果推理：在特定领域有进展\n🔄 强化学习：在游戏等封闭环境中成功\n\n尚未突破：\n❌ 真正的零样本推理：仍依赖预训练知识\n❌ 常识推理：缺乏对物理世界的深度理解\n❌ 长期规划：难以进行复杂的多步推理" style="rounded=1;whiteSpace=wrap;html=1;fillColor=#f1f8e9;strokeColor=#689f38;align=left;verticalAlign=top;spacingLeft=10;spacingTop=10;fontSize=11;" vertex="1" parent="1">
          <mxGeometry x="400" y="580" width="320" height="200" as="geometry" />
        </mxCell>
        
        <!-- 未来展望 -->
        <mxCell id="future-outlook" value="🔮 未来展望：通向通用人工智能的路径\n\n短期目标（2-5年）：\n• 大模型 + 强化学习 + 工具使用\n• 多模态 + 因果推理 + 持续学习\n• 更强的代码生成和程序合成能力\n\n中期愿景（5-15年）：\n• 真正的神经符号融合系统\n• 大规模多智能体协作\n• 量子-经典混合计算\n• 接近人类水平的常识推理\n\n长期目标（15年以上）：\n• 自我改进的AI系统\n• 真正的创造性和直觉\n• 意识和自我认知的涌现\n• 科学研究的自动化" style="rounded=1;whiteSpace=wrap;html=1;fillColor=#e8eaf6;strokeColor=#3f51b5;align=left;verticalAlign=top;spacingLeft=10;spacingTop=10;fontSize=11;" vertex="1" parent="1">
          <mxGeometry x="760" y="580" width="320" height="200" as="geometry" />
        </mxCell>
        
        <!-- 核心结论 -->
        <mxCell id="conclusion" value="💡 核心结论与思考\n\n关键观点：\n1. 训练数据的限制是真实存在的，但不是绝对的壁垒\n2. 多种技术路径正在突破这一限制\n3. 量子计算提供了新的可能性，但仍面临技术挑战\n4. 真正的突破可能来自多种方法的融合\n5. 智能的本质可能就是高效的模式识别和组合\n\n最终思考：\n也许&quot;受限于训练数据&quot;这个问题的答案不在于完全摆脱数据依赖，\n而在于：\n• 更智能地利用数据：从少量数据中学习更多\n• 更广泛地定义数据：包括交互、探索、推理过程\n• 更深层地理解学习：发现智能涌现的根本机制\n\n这不是魔法，而是我们对智能本质理解的不断深化。" style="rounded=1;whiteSpace=wrap;html=1;fillColor=#fff3e0;strokeColor=#f57c00;align=left;verticalAlign=top;spacingLeft=10;spacingTop=10;fontSize=11;" vertex="1" parent="1">
          <mxGeometry x="1120" y="580" width="400" height="240" as="geometry" />
        </mxCell>
        
        <!-- 连接线 -->
        <mxCell id="arrow1" style="edgeStyle=orthogonalEdgeStyle;rounded=0;orthogonalLoop=1;jettySize=auto;html=1;strokeColor=#666666;strokeWidth=2;" edge="1" parent="1" source="core-problem" target="reinforcement-learning">
          <mxGeometry relative="1" as="geometry" />
        </mxCell>
        
        <mxCell id="arrow2" style="edgeStyle=orthogonalEdgeStyle;rounded=0;orthogonalLoop=1;jettySize=auto;html=1;strokeColor=#666666;strokeWidth=2;" edge="1" parent="1" source="core-problem" target="meta-learning">
          <mxGeometry relative="1" as="geometry" />
        </mxCell>
        
        <mxCell id="arrow3" style="edgeStyle=orthogonalEdgeStyle;rounded=0;orthogonalLoop=1;jettySize=auto;html=1;strokeColor=#666666;strokeWidth=2;" edge="1" parent="1" source="core-problem" target="few-shot-learning">
          <mxGeometry relative="1" as="geometry" />
        </mxCell>
        
        <mxCell id="arrow4" style="edgeStyle=orthogonalEdgeStyle;rounded=0;orthogonalLoop=1;jettySize=auto;html=1;strokeColor=#666666;strokeWidth=2;" edge="1" parent="1" source="reinforcement-learning" target="continual-learning">
          <mxGeometry relative="1" as="geometry" />
        </mxCell>
        
        <mxCell id="arrow5" style="edgeStyle=orthogonalEdgeStyle;rounded=0;orthogonalLoop=1;jettySize=auto;html=1;strokeColor=#666666;strokeWidth=2;" edge="1" parent="1" source="meta-learning" target="emergence">
          <mxGeometry relative="1" as="geometry" />
        </mxCell>
        
        <mxCell id="arrow6" style="edgeStyle=orthogonalEdgeStyle;rounded=0;orthogonalLoop=1;jettySize=auto;html=1;strokeColor=#666666;strokeWidth=2;" edge="1" parent="1" source="few-shot-learning" target="quantum-computing">
          <mxGeometry relative="1" as="geometry" />
        </mxCell>
        
        <mxCell id="arrow7" style="edgeStyle=orthogonalEdgeStyle;rounded=0;orthogonalLoop=1;jettySize=auto;html=1;strokeColor=#666666;strokeWidth=2;" edge="1" parent="1" source="neuro-symbolic" target="breakthrough-analysis">
          <mxGeometry relative="1" as="geometry" />
        </mxCell>
        
        <mxCell id="arrow8" style="edgeStyle=orthogonalEdgeStyle;rounded=0;orthogonalLoop=1;jettySize=auto;html=1;strokeColor=#666666;strokeWidth=2;" edge="1" parent="1" source="continual-learning" target="breakthrough-analysis">
          <mxGeometry relative="1" as="geometry" />
        </mxCell>
        
        <mxCell id="arrow9" style="edgeStyle=orthogonalEdgeStyle;rounded=0;orthogonalLoop=1;jettySize=auto;html=1;strokeColor=#666666;strokeWidth=2;" edge="1" parent="1" source="emergence" target="future-outlook">
          <mxGeometry relative="1" as="geometry" />
        </mxCell>
        
        <mxCell id="arrow10" style="edgeStyle=orthogonalEdgeStyle;rounded=0;orthogonalLoop=1;jettySize=auto;html=1;strokeColor=#666666;strokeWidth=2;" edge="1" parent="1" source="quantum-computing" target="conclusion">
          <mxGeometry relative="1" as="geometry" />
        </mxCell>
        
      </root>
    </mxGraphModel>
  </diagram>
</mxfile>